<svg width="204" height="39" viewBox="0 0 204 39" fill="none" xmlns="http://www.w3.org/2000/svg">
<path d="M185.666 17.3561C185.685 17.2993 185.708 17.244 185.724 17.1863L185.732 17.1516C185.895 16.597 185.895 16.0172 185.73 15.4628C185.565 14.9084 185.241 14.3963 184.787 13.9715C184.368 13.4976 183.822 13.1136 183.193 12.8505C182.565 12.5874 181.871 12.4527 181.169 12.4574H181.139C181.082 12.4574 181.018 12.4608 180.957 12.4622H180.888C179.678 12.519 178.476 12.6563 177.293 12.873L174.731 12.5291H174.711C173.491 12.3517 172.235 12.5209 171.142 13.01C170.527 13.3224 169.998 13.7419 169.591 14.2403L169.568 14.2668L169.553 14.2836C169.016 14.9534 168.724 15.7407 168.713 16.5484C168.702 17.3561 168.973 18.1489 169.492 18.8288C169.481 18.8451 169.475 18.8634 169.464 18.8802C169.415 18.9636 169.372 19.05 169.338 19.1385C169.319 19.1866 169.306 19.2376 169.293 19.2876C169.282 19.3283 169.273 19.3691 169.265 19.4098C169.258 19.4607 169.253 19.5119 169.252 19.5632C169.252 19.6046 169.247 19.645 169.249 19.6859C169.253 19.7397 169.26 19.7933 169.271 19.8465C169.278 19.8845 169.281 19.9225 169.291 19.96C169.309 20.0193 169.331 20.0774 169.358 20.1341C169.371 20.1644 169.38 20.1957 169.396 20.2255C169.442 20.3137 169.5 20.3967 169.567 20.4747C169.826 20.7862 170.208 21.0105 170.645 21.1076C170.629 21.3127 170.67 21.5181 170.764 21.7078C170.858 21.8974 171.004 22.066 171.189 22.2004C171.517 22.4418 171.919 22.6008 172.349 22.6592C172.438 22.9011 172.594 23.1219 172.803 23.3037C173.089 23.564 173.475 23.731 173.893 23.7751C173.993 24.0603 174.182 24.3181 174.44 24.5206C174.759 24.7841 175.186 24.9342 175.633 24.939C175.961 24.9371 176.284 24.8653 176.571 24.7303C176.996 24.9352 177.495 25.0044 177.977 24.9255C178.23 24.8867 178.47 24.8016 178.679 24.6762C178.889 24.5507 179.063 24.3881 179.189 24.1998C179.201 24.1839 179.208 24.1699 179.218 24.1541C179.705 24.2378 180.211 24.1642 180.636 23.9482C181.01 23.7708 181.295 23.4854 181.438 23.145C181.949 23.1508 182.445 22.9959 182.826 22.7097C183.035 22.5559 183.198 22.3625 183.3 22.1454C183.402 21.9283 183.441 21.6939 183.413 21.4616C183.413 21.4481 183.409 21.4376 183.408 21.4246C183.707 21.3493 183.976 21.2072 184.185 21.0133C184.457 20.7729 184.631 20.4671 184.685 20.1388C184.738 19.8106 184.667 19.4765 184.483 19.1837C184.998 18.6842 185.387 18.1025 185.627 17.4734C185.641 17.4364 185.653 17.396 185.666 17.3561ZM184.687 16.5384C184.658 16.7802 184.595 17.0182 184.498 17.2474L184.48 17.2955C184.29 17.7233 184.015 18.1212 183.669 18.4729C181.874 17.156 179.262 15.234 179.048 15.0618C178.8 14.8625 178.471 14.7503 178.128 14.7482C178.021 14.7472 177.915 14.76 177.814 14.7862C177.451 14.8824 176.559 15.1229 175.781 15.3658C175.483 15.4586 175.144 15.2215 175.04 15.0195C174.971 14.8983 174.96 14.7598 175.007 14.6319C175.1 14.49 175.257 14.3846 175.442 14.3394C177.203 13.8194 179.042 13.5117 180.905 13.4256H180.974C181.038 13.4256 181.1 13.4217 181.159 13.4208C181.586 13.4151 182.01 13.4827 182.406 13.6194C182.992 13.8434 183.507 14.1813 183.907 14.6054C184.266 14.9455 184.516 15.3563 184.635 15.7996L184.64 15.8218C184.668 15.9401 184.686 16.06 184.692 16.1806C184.694 16.2195 184.697 16.2686 184.697 16.3119C184.697 16.3816 184.697 16.4509 184.687 16.5197L184.687 16.5384ZM170.407 19.7412C170.403 19.72 170.402 19.6984 170.403 19.6762C170.396 19.6299 170.396 19.5831 170.403 19.5368C170.409 19.5095 170.418 19.4826 170.427 19.456C170.439 19.413 170.456 19.3715 170.476 19.3314C170.496 19.3025 170.517 19.275 170.541 19.2487C170.575 19.2012 170.616 19.1587 170.664 19.1212L170.668 19.1188L171.744 18.3517C171.815 18.3054 171.897 18.2714 171.984 18.2517C172.071 18.2319 172.162 18.2268 172.252 18.2366C172.341 18.2465 172.428 18.271 172.506 18.3089C172.584 18.3468 172.653 18.3973 172.708 18.4575C172.748 18.5066 172.774 18.563 172.784 18.6221C172.794 18.6812 172.787 18.7414 172.765 18.798L171.077 20.1803C170.96 20.182 170.845 20.1583 170.743 20.1115C170.64 20.0647 170.554 19.9964 170.493 19.9134C170.449 19.8619 170.42 19.8031 170.407 19.7412ZM171.846 20.8931L173.699 19.3761L173.69 19.3689C173.795 19.3257 173.912 19.3103 174.027 19.3247C174.174 19.3583 174.307 19.4276 174.408 19.5238C174.509 19.5959 174.577 19.695 174.599 19.8047C174.608 19.9158 174.579 20.0266 174.516 20.1245L174.501 20.1654L172.629 21.6982C172.498 21.7031 172.367 21.6842 172.245 21.6427C172.123 21.6012 172.013 21.5381 171.923 21.4578C171.849 21.379 171.802 21.2844 171.789 21.1846C171.775 21.0848 171.795 20.9839 171.846 20.8931ZM173.44 22.3769L175.374 20.795C175.497 20.8157 175.61 20.8686 175.696 20.946C175.814 21.0333 175.897 21.15 175.932 21.2793C175.94 21.3349 175.937 21.3914 175.923 21.4462L174.25 22.8146C174.139 22.8319 174.024 22.8251 173.916 22.7948C173.809 22.7645 173.712 22.7117 173.635 22.6414C173.546 22.5677 173.479 22.477 173.44 22.3769ZM175.235 23.8256C175.131 23.7489 175.05 23.6536 174.996 23.5466L176.576 22.2542C176.689 22.2855 176.792 22.337 176.878 22.4048C176.959 22.4589 177.02 22.5311 177.054 22.613C177.073 22.6737 177.073 22.7376 177.054 22.7982C176.983 22.9923 176.863 23.1716 176.704 23.3244L176.271 23.7476H176.275C176.261 23.7553 176.245 23.7587 176.231 23.7674C176.07 23.8912 175.862 23.9638 175.644 23.9727C175.49 23.9705 175.343 23.9177 175.235 23.8256ZM177.795 23.9732C177.711 23.9844 177.626 23.9876 177.54 23.9828L177.582 23.9415L177.596 23.9275L177.597 23.928C177.77 23.7477 177.917 23.5505 178.034 23.3407L178.287 23.5658C178.266 23.6114 178.241 23.6551 178.212 23.6971C178.172 23.7663 178.113 23.827 178.041 23.8748C177.969 23.9225 177.885 23.9561 177.795 23.9732ZM181.458 22.1816L180.44 21.2336C180.352 21.1477 180.231 21.0904 180.099 21.0718C179.966 21.0533 179.83 21.0747 179.714 21.1322C179.598 21.1898 179.51 21.2799 179.466 21.3866C179.421 21.4933 179.423 21.6098 179.47 21.7156C179.497 21.7755 179.537 21.8305 179.589 21.8772L180.411 22.6467C180.405 22.6961 180.393 22.7442 180.375 22.791C180.327 22.9272 180.218 23.0426 180.072 23.1128C179.893 23.2114 179.676 23.2486 179.465 23.2167L178.778 22.6039C178.704 22.5382 178.61 22.4916 178.505 22.4696C178.401 22.4475 178.291 22.4509 178.189 22.4793C178.18 22.4327 178.168 22.3865 178.153 22.3408C178.058 22.0895 177.883 21.8652 177.645 21.6929C177.479 21.5652 177.289 21.462 177.082 21.3875C177.085 21.2981 177.078 21.2085 177.062 21.1201C176.988 20.7926 176.792 20.4933 176.503 20.2654C176.292 20.0863 176.032 19.9541 175.746 19.8807C175.749 19.8165 175.746 19.7524 175.737 19.6883C175.683 19.3644 175.499 19.0657 175.215 18.8422C174.956 18.6145 174.624 18.4555 174.259 18.3848C174.135 18.3647 174.008 18.3574 173.882 18.3632C173.837 18.1845 173.746 18.0162 173.616 17.8702C173.469 17.7099 173.286 17.5754 173.077 17.4746C172.868 17.3738 172.638 17.3086 172.399 17.2828C172.16 17.2569 171.918 17.2709 171.685 17.3239C171.453 17.3769 171.235 17.4679 171.045 17.5917L171.025 17.6052L170.318 18.1054C169.986 17.5982 169.828 17.024 169.86 16.446C169.891 15.8679 170.112 15.3084 170.498 14.829L170.51 14.8146C170.823 14.422 171.234 14.0912 171.714 13.845C172.59 13.4614 173.593 13.3343 174.565 13.4838L174.831 13.5194C174.438 13.6681 174.125 13.933 173.95 14.2634C173.866 14.4448 173.826 14.6386 173.832 14.8332C173.839 15.0279 173.892 15.2195 173.988 15.3966C174.16 15.7451 174.479 16.0274 174.885 16.1885C175.291 16.3496 175.753 16.378 176.182 16.2681C176.938 16.0329 177.804 15.7968 178.128 15.7107C178.154 15.7099 178.179 15.7141 178.203 15.7229C178.226 15.7316 178.247 15.7447 178.264 15.7612C178.544 15.9824 181.922 18.4676 183.333 19.5012L183.447 19.5834C183.536 19.7044 183.574 19.8469 183.555 19.9882C183.536 20.1295 183.461 20.2613 183.342 20.3626C183.261 20.4365 183.154 20.4869 183.036 20.5069L182.045 19.6618C181.937 19.5755 181.793 19.5277 181.644 19.5287C181.495 19.5297 181.352 19.5793 181.246 19.667C181.14 19.7548 181.078 19.8738 181.074 19.999C181.07 20.1242 181.124 20.2458 181.225 20.3381L182.173 21.1451C182.177 21.1596 182.181 21.1738 182.187 21.1879L182.193 21.2028C182.236 21.3055 182.262 21.4127 182.271 21.5212C182.287 21.6037 182.278 21.6882 182.246 21.7673C182.214 21.8464 182.16 21.9176 182.087 21.9748C181.916 22.1095 181.69 22.1835 181.456 22.1816H181.458Z" fill="url(#paint0_linear_467_1827)"/>
<path d="M177.284 30.3738C175.308 30.3738 173.451 30.0454 171.713 29.3888C169.975 28.7321 168.464 27.8417 167.178 26.7175C165.893 25.5934 164.875 24.2704 164.126 22.7488C163.376 21.2271 163.001 19.6021 163 17.8738C162.999 16.1454 163.374 14.5204 164.126 12.9988C164.877 11.4771 165.894 10.1542 167.178 9.03003C168.462 7.90586 169.974 7.01545 171.713 6.35878C173.453 5.70211 175.31 5.37378 177.284 5.37378C179.258 5.37378 181.115 5.70211 182.855 6.35878C184.595 7.01545 186.107 7.90586 187.39 9.03003C188.674 10.1542 189.692 11.4771 190.444 12.9988C191.196 14.5204 191.571 16.1454 191.568 17.8738C191.565 19.6021 191.19 21.2271 190.443 22.7488C189.695 24.2704 188.678 25.5934 187.39 26.7175C186.103 27.8417 184.591 28.7325 182.855 29.39C181.119 30.0475 179.262 30.3754 177.284 30.3738ZM177.284 27.8738C180.474 27.8738 183.176 26.905 185.39 24.9675C187.604 23.03 188.712 20.6654 188.712 17.8738C188.712 15.0821 187.604 12.7175 185.39 10.78C183.176 8.84253 180.474 7.87378 177.284 7.87378C174.094 7.87378 171.392 8.84253 169.178 10.78C166.964 12.7175 165.857 15.0821 165.857 17.8738C165.857 20.6654 166.964 23.03 169.178 24.9675C171.392 26.905 174.094 27.8738 177.284 27.8738Z" fill="url(#paint1_linear_467_1827)"/>
<path d="M55.0455 6.924C56.4615 6.924 57.7215 7.044 58.8255 7.284C59.9295 7.524 60.9255 7.848 61.8135 8.256L60.7695 11.604C59.9295 11.196 59.0655 10.896 58.1775 10.704C57.2895 10.512 56.4135 10.416 55.5495 10.416C54.5655 10.416 53.6295 10.572 52.7415 10.884C51.8775 11.196 51.1215 11.688 50.4735 12.36C49.8255 13.032 49.3095 13.896 48.9255 14.952C48.5415 15.984 48.3495 17.232 48.3495 18.696C48.3495 21.312 48.9255 23.328 50.0775 24.744C51.2535 26.136 52.9215 26.832 55.0815 26.832C56.3295 26.832 57.2655 26.712 57.8895 26.472V21.18H54.1455V17.508H62.6055V28.992C61.6695 29.4 60.5775 29.736 59.3295 30C58.0815 30.264 56.6535 30.396 55.0455 30.396C53.3655 30.396 51.7935 30.144 50.3295 29.64C48.8895 29.136 47.6295 28.392 46.5495 27.408C45.4935 26.4 44.6535 25.176 44.0295 23.736C43.4295 22.272 43.1295 20.592 43.1295 18.696C43.1295 16.8 43.4295 15.12 44.0295 13.656C44.6535 12.168 45.4935 10.932 46.5495 9.948C47.6055 8.964 48.8535 8.22 50.2935 7.716C51.7575 7.188 53.3415 6.924 55.0455 6.924ZM71.8164 7.32V30H66.8844V7.32H71.8164ZM87.7056 6.924C89.1216 6.924 90.3816 7.044 91.4856 7.284C92.5896 7.524 93.5856 7.848 94.4736 8.256L93.4296 11.604C92.5896 11.196 91.7256 10.896 90.8376 10.704C89.9496 10.512 89.0736 10.416 88.2096 10.416C87.2256 10.416 86.2896 10.572 85.4016 10.884C84.5376 11.196 83.7816 11.688 83.1336 12.36C82.4856 13.032 81.9696 13.896 81.5856 14.952C81.2016 15.984 81.0096 17.232 81.0096 18.696C81.0096 21.312 81.5856 23.328 82.7376 24.744C83.9136 26.136 85.5816 26.832 87.7416 26.832C88.9896 26.832 89.9256 26.712 90.5496 26.472V21.18H86.8056V17.508H95.2656V28.992C94.3296 29.4 93.2376 29.736 91.9896 30C90.7416 30.264 89.3136 30.396 87.7056 30.396C86.0256 30.396 84.4536 30.144 82.9896 29.64C81.5496 29.136 80.2896 28.392 79.2096 27.408C78.1536 26.4 77.3136 25.176 76.6896 23.736C76.0896 22.272 75.7896 20.592 75.7896 18.696C75.7896 16.8 76.0896 15.12 76.6896 13.656C77.3136 12.168 78.1536 10.932 79.2096 9.948C80.2656 8.964 81.5136 8.22 82.9536 7.716C84.4176 7.188 86.0016 6.924 87.7056 6.924ZM99.5445 7.32H104.045L111.857 19.272C112.385 20.088 112.865 20.892 113.297 21.684C113.753 22.452 114.077 23.052 114.269 23.484H114.341C114.197 21.924 114.125 20.376 114.125 18.84C114.125 17.28 114.125 15.708 114.125 14.124V7.32H118.697V30H114.197L106.925 18.984C106.613 18.504 106.301 18.012 105.989 17.508C105.701 16.98 105.425 16.476 105.161 15.996C104.897 15.516 104.657 15.084 104.441 14.7C104.249 14.292 104.105 13.956 104.009 13.692H103.937C104.057 15.348 104.117 16.944 104.117 18.48C104.141 19.992 104.153 21.54 104.153 23.124V30H99.5445V7.32ZM123.662 7.32H138.422V11.136H128.594V16.32H137.486V20.1H128.594V26.184H138.53V30H123.662V7.32ZM152.956 6.924C154.372 6.924 155.632 7.044 156.736 7.284C157.84 7.524 158.836 7.848 159.724 8.256L158.68 11.604C157.84 11.196 156.976 10.896 156.088 10.704C155.2 10.512 154.324 10.416 153.46 10.416C152.476 10.416 151.54 10.572 150.652 10.884C149.788 11.196 149.032 11.688 148.384 12.36C147.736 13.032 147.22 13.896 146.836 14.952C146.452 15.984 146.26 17.232 146.26 18.696C146.26 21.312 146.836 23.328 147.988 24.744C149.164 26.136 150.832 26.832 152.992 26.832C154.24 26.832 155.176 26.712 155.8 26.472V21.18H152.056V17.508H160.516V28.992C159.58 29.4 158.488 29.736 157.24 30C155.992 30.264 154.564 30.396 152.956 30.396C151.276 30.396 149.704 30.144 148.24 29.64C146.8 29.136 145.54 28.392 144.46 27.408C143.404 26.4 142.564 25.176 141.94 23.736C141.34 22.272 141.04 20.592 141.04 18.696C141.04 16.8 141.34 15.12 141.94 13.656C142.564 12.168 143.404 10.932 144.46 9.948C145.516 8.964 146.764 8.22 148.204 7.716C149.668 7.188 151.252 6.924 152.956 6.924Z" fill="url(#paint2_linear_467_1827)"/>
<defs>
<linearGradient id="paint0_linear_467_1827" x1="168.713" y1="18.7073" x2="185.854" y2="18.7073" gradientUnits="userSpaceOnUse">
<stop stop-color="#0071FF"/>
<stop offset="0.5" stop-color="#005BCC"/>
<stop offset="1" stop-color="#004499"/>
</linearGradient>
<linearGradient id="paint1_linear_467_1827" x1="163" y1="17.8738" x2="191.568" y2="17.8738" gradientUnits="userSpaceOnUse">
<stop stop-color="#0071FF"/>
<stop offset="0.5" stop-color="#005BCC"/>
<stop offset="1" stop-color="#004499"/>
</linearGradient>
<linearGradient id="paint2_linear_467_1827" x1="0" y1="19.5" x2="204" y2="19.5" gradientUnits="userSpaceOnUse">
<stop stop-color="#0071FF"/>
<stop offset="0.5" stop-color="#005BCC"/>
<stop offset="1" stop-color="#004499"/>
</linearGradient>
</defs>
</svg>
